<svg xmlns="http://www.w3.org/2000/svg" viewBox="0 0 640 900" role="img" aria-label="逻辑构序协会占位卡图">
  <defs>
    <linearGradient id="bg" x1="0" x2="1" y1="0" y2="1"><stop stop-color="#15183d"/><stop offset="1" stop-color="#070819"/></linearGradient>
    <radialGradient id="glow" cx="50%" cy="38%" r="52%"><stop stop-color="#8c95ff" stop-opacity=".9"/><stop offset="1" stop-color="#8c95ff" stop-opacity="0"/></radialGradient>
  </defs>
  <rect width="640" height="900" fill="url(#bg)"/>
  <rect x="34" y="34" width="572" height="832" rx="34" fill="none" stroke="#b9c0ff" stroke-width="5"/>
  <rect x="58" y="58" width="524" height="784" rx="24" fill="none" stroke="#7f8cff" stroke-opacity=".55" stroke-width="2"/>
  <circle cx="320" cy="330" r="255" fill="url(#glow)"/>
  <g fill="none" stroke="#dce1ff" stroke-linecap="round" stroke-linejoin="round">
    <circle cx="320" cy="350" r="122" stroke-width="10"/>
    <circle cx="320" cy="350" r="62" stroke-width="8"/>
    <path d="M320 188v-68M320 580v-68M158 350H90M550 350h-68M206 236l-48-48M434 464l48 48M434 236l48-48M206 464l-48 48" stroke-width="10"/>
    <path d="M254 350h132M320 284v132" stroke-width="12"/>
  </g>
</svg>
