<svg xmlns="http://www.w3.org/2000/svg" viewBox="0 0 640 900" role="img" aria-label="规则制定协会占位卡图">
  <defs>
    <linearGradient id="bg" x1="0" x2="1" y1="0" y2="1"><stop stop-color="#3d171b"/><stop offset="1" stop-color="#120911"/></linearGradient>
    <radialGradient id="glow" cx="50%" cy="38%" r="56%"><stop stop-color="#ff9e8d" stop-opacity=".95"/><stop offset="1" stop-color="#ff9e8d" stop-opacity="0"/></radialGradient>
  </defs>
  <rect width="640" height="900" fill="url(#bg)"/>
  <rect x="34" y="34" width="572" height="832" rx="34" fill="none" stroke="#ffd2ca" stroke-width="5"/>
  <rect x="58" y="58" width="524" height="784" rx="24" fill="none" stroke="#ff9e8d" stroke-opacity=".62" stroke-width="2"/>
  <circle cx="320" cy="330" r="255" fill="url(#glow)"/>
  <g fill="none" stroke="#fff0ec" stroke-linecap="round" stroke-linejoin="round">
    <path d="M320 166l170 98v190L320 552 150 454V264l170-98Z" stroke-width="10"/>
    <path d="M320 166v188l170-90M320 354L150 264M320 354v198" stroke-width="8"/>
    <circle cx="252" cy="284" r="14" fill="#fff0ec"/>
    <circle cx="388" cy="284" r="14" fill="#fff0ec"/>
    <circle cx="320" cy="430" r="14" fill="#fff0ec"/>
    <path d="M202 594h236M236 638h168" stroke-width="9"/>
  </g>
</svg>
