<svg xmlns="http://www.w3.org/2000/svg" viewBox="0 0 640 900" role="img" aria-label="感官铸型协会占位卡图">
  <defs>
    <linearGradient id="bg" x1="0" x2="1" y1="0" y2="1"><stop stop-color="#102d37"/><stop offset="1" stop-color="#080d18"/></linearGradient>
    <radialGradient id="glow" cx="50%" cy="38%" r="58%"><stop stop-color="#62d7c4" stop-opacity=".95"/><stop offset="1" stop-color="#62d7c4" stop-opacity="0"/></radialGradient>
  </defs>
  <rect width="640" height="900" fill="url(#bg)"/>
  <rect x="34" y="34" width="572" height="832" rx="34" fill="none" stroke="#b7fff1" stroke-width="5"/>
  <rect x="58" y="58" width="524" height="784" rx="24" fill="none" stroke="#62d7c4" stroke-opacity=".6" stroke-width="2"/>
  <circle cx="320" cy="330" r="255" fill="url(#glow)"/>
  <g fill="none" stroke="#e9fff9" stroke-linecap="round" stroke-linejoin="round">
    <path d="M320 176c74 88 122 158 122 222 0 74-55 128-122 128s-122-54-122-128c0-64 48-134 122-222Z" stroke-width="10"/>
    <path d="M220 398c46-26 87-30 123-12s61 50 88 96M224 304c52-24 102-21 150 10s77 72 92 126" stroke-width="8" opacity=".8"/>
    <path d="M160 220c48 26 86 26 114 0M366 220c48 26 86 26 114 0M166 560c92-44 190-44 300 0" stroke-width="9"/>
  </g>
</svg>
