<svg xmlns="http://www.w3.org/2000/svg" viewBox="0 0 640 900" role="img" aria-label="灵魂编织协会占位卡图">
  <defs>
    <linearGradient id="bg" x1="0" x2="1" y1="0" y2="1"><stop stop-color="#3c2810"/><stop offset="1" stop-color="#100c10"/></linearGradient>
    <radialGradient id="glow" cx="50%" cy="38%" r="56%"><stop stop-color="#f0bf62" stop-opacity=".95"/><stop offset="1" stop-color="#f0bf62" stop-opacity="0"/></radialGradient>
  </defs>
  <rect width="640" height="900" fill="url(#bg)"/>
  <rect x="34" y="34" width="572" height="832" rx="34" fill="none" stroke="#ffe4a8" stroke-width="5"/>
  <rect x="58" y="58" width="524" height="784" rx="24" fill="none" stroke="#f0bf62" stroke-opacity=".62" stroke-width="2"/>
  <circle cx="320" cy="330" r="255" fill="url(#glow)"/>
  <g fill="none" stroke="#fff1c9" stroke-linecap="round" stroke-linejoin="round">
    <path d="M198 236c42-28 92-28 122 10 30-38 80-38 122-10v270c-42-28-92-28-122 10-30-38-80-38-122-10V236Z" stroke-width="10"/>
    <path d="M320 246v270M230 302h58M230 360h58M230 418h58M352 302h58M352 360h58M352 418h58" stroke-width="8" opacity=".84"/>
    <path d="M172 572c72-34 154-40 246-18M214 184c70-38 142-38 212 0" stroke-width="8"/>
  </g>
</svg>
